<svg width="20" height="14" viewBox="0 0 20 14" fill="none" xmlns="http://www.w3.org/2000/svg">
<g clip-path="url(#clip0_522_1375)">
<path fill-rule="evenodd" clip-rule="evenodd" d="M0.875977 12.9597V0.743652H6.52325C8.33716 0.743652 9.80763 2.21412 9.80763 4.02803C9.80763 5.18068 9.4532 5.89469 8.15362 6.62718C9.70875 7.33577 10.1407 8.31784 10.1407 9.68768C10.1407 11.5408 8.49444 12.9597 6.64137 12.9597H0.875977ZM3.26566 2.7658V5.7033H6.06253C6.06253 5.7033 7.42191 5.7033 7.42191 4.23456C7.42191 2.7658 6.06253 2.7658 6.06253 2.7658H3.26566ZM3.26566 10.8908V7.71893H6.26566C6.75003 7.71893 7.76566 7.96893 7.76566 9.46893C7.76566 10.5815 6.76566 10.8804 6.26566 10.8908H3.26566Z" fill="#B2DBF1"/>
<path fill-rule="evenodd" clip-rule="evenodd" d="M15.25 4.10938C13.5313 4.10938 10.9844 5.34375 10.9844 8.625C10.9844 10.623 12.0782 13.1875 15.3594 13.1875C17.9844 13.1875 19.1927 11.2604 19.4688 10.2969H17C16.875 10.7344 16.3907 11.2188 15.3594 11.2188C13.8594 11.2188 13.3282 9.93749 13.25 9.29688H19.4688V8.625C19.4688 5.34375 16.9688 4.10938 15.25 4.10938ZM15.25 5.98438C13.85 5.98438 13.3334 7.14062 13.25 7.71875H17C17 7.14062 16.65 5.98438 15.25 5.98438Z" fill="#B2DBF1"/>
<path d="M12.2657 1.4375V2.95312H18.1563V1.4375H12.2657Z" fill="#B2DBF1"/>
</g>
<defs>
<clipPath id="clip0_522_1375">
<rect width="20" height="14" fill="white"/>
</clipPath>
</defs>
</svg>
