<svg width="120" height="120" viewBox="0 0 120 120" fill="none" xmlns="http://www.w3.org/2000/svg">
<g clip-path="url(#clip0_495_1386)">
<rect width="120" height="120" rx="60" fill="#CCE6A3"/>
<g filter="url(#filter0_f_495_1386)">
<path d="M-8.92182 53.0131C-7.04841 60.8064 -5.31022 69.1298 -2.22834 76.6154C-4.21069 78.2276 -5.92364 80.5767 -4.92532 83.1179C-4.52531 84.1361 -2.7315 84.3969 -2.69776 85.4765C-2.62304 87.8674 -3.9501 90.4178 -4.43394 92.716C-6.06477 100.462 -5.77872 110.33 -1.6495 117.285C3.34767 125.701 17.1626 126.276 25.5071 127.047C51.0984 129.409 78.1761 129.563 103.635 125.736C124.384 122.618 143.521 113.893 160.242 101.2C175.185 89.8569 187.816 75.8043 197.193 59.532C205.136 45.747 211.404 29.8001 206.758 13.6705C198.498 -15.0042 165.126 -28.1631 138.228 -30.4876C124.278 -31.6932 110.992 -28.6185 102.063 -17.5153C96.1835 -10.2041 90.597 -2.11205 82.8339 3.3844C73.5408 9.96417 62.9172 10.2649 52.0085 10.5584C40.4146 10.8704 28.5849 11.299 17.1537 13.4084C8.67574 14.9729 0.180037 17.3453 -5.51496 24.2186C-12.6231 32.7974 -11.3245 43.018 -8.92182 53.0131Z" fill="#AFCEF6"/>
</g>
<g filter="url(#filter1_f_495_1386)">
<path d="M1.07818 64.0131C2.95159 71.8064 4.68978 80.1298 7.77166 87.6154C5.78931 89.2276 4.07636 91.5767 5.07468 94.1179C5.47469 95.1361 7.2685 95.3969 7.30224 96.4765C7.37696 98.8674 6.0499 101.418 5.56606 103.716C3.93523 111.462 4.22128 121.33 8.3505 128.285C13.3477 136.701 27.1626 137.276 35.5071 138.047C61.0984 140.409 88.1761 140.563 113.635 136.736C134.384 133.618 153.521 124.893 170.242 112.2C185.185 100.857 197.816 86.8043 207.193 70.532C215.136 56.747 221.404 40.8001 216.758 24.6705C208.498 -4.00424 175.126 -17.1631 148.228 -19.4876C134.278 -20.6932 120.992 -17.6185 112.063 -6.51534C106.184 0.795933 100.597 8.88795 92.8339 14.3844C83.5408 20.9642 72.9172 21.2649 62.0085 21.5584C50.4146 21.8704 38.5849 22.299 27.1537 24.4084C18.6757 25.9729 10.18 28.3453 4.48504 35.2186C-2.62309 43.7974 -1.32448 54.018 1.07818 64.0131Z" fill="#156FE5"/>
</g>
<g filter="url(#filter2_f_495_1386)">
<path d="M1.07818 114.013C2.95159 121.806 4.68978 130.13 7.77166 137.615C5.78931 139.228 4.07636 141.577 5.07468 144.118C5.47469 145.136 7.2685 145.397 7.30224 146.476C7.37696 148.867 6.0499 151.418 5.56606 153.716C3.93523 161.462 4.22128 171.33 8.3505 178.285C13.3477 186.701 27.1626 187.276 35.5071 188.047C61.0984 190.409 88.1761 190.563 113.635 186.736C134.384 183.618 153.521 174.893 170.242 162.2C185.185 150.857 197.816 136.804 207.193 120.532C215.136 106.747 221.404 90.8001 216.758 74.6705C208.498 45.9958 175.126 32.8369 148.228 30.5124C134.278 29.3068 120.992 32.3815 112.063 43.4847C106.184 50.7959 100.597 58.8879 92.8339 64.3844C83.5408 70.9642 72.9172 71.2649 62.0085 71.5584C50.4146 71.8704 38.5849 72.299 27.1537 74.4084C18.6757 75.9729 10.18 78.3453 4.48504 85.2186C-2.62309 93.7974 -1.32448 104.018 1.07818 114.013Z" fill="#FFB9F8"/>
</g>
<g filter="url(#filter3_f_495_1386)">
<path d="M58.3458 30.4795C59.1045 28.5068 61.8955 28.5068 62.6543 30.4795L67.4658 42.9893C68.4422 45.5279 68.9303 46.7972 69.6892 47.8648C70.3623 48.811 71.189 49.6378 72.1352 50.3106C73.203 51.0698 74.4722 51.5579 77.0106 52.5343L89.5205 57.3458C91.4932 58.1045 91.4932 60.8955 89.5205 61.6543L77.0106 66.4658C74.4722 67.4422 73.203 67.9303 72.1352 68.6892C71.189 69.3623 70.3623 70.189 69.6892 71.1352C68.9303 72.203 68.4422 73.4722 67.4658 76.0106L62.6543 88.5205C61.8955 90.4932 59.1045 90.4932 58.3458 88.5205L53.5343 76.0106C52.558 73.4722 52.0698 72.203 51.3106 71.1352C50.6378 70.189 49.811 69.3623 48.8648 68.6892C47.7972 67.9303 46.5279 67.4422 43.9893 66.4658L31.4795 61.6543C29.5068 60.8955 29.5068 58.1045 31.4795 57.3458L43.9893 52.5343C46.5279 51.5579 47.7972 51.0698 48.8648 50.3106C49.811 49.6378 50.6378 48.811 51.3106 47.8648C52.0698 46.7972 52.558 45.5279 53.5343 42.9893L58.3458 30.4795Z" fill="#6E60BF"/>
</g>
<path d="M58.3458 30.4795C59.1045 28.5068 61.8955 28.5068 62.6543 30.4795L67.4658 42.9893C68.4422 45.5279 68.9303 46.7972 69.6892 47.8648C70.3623 48.811 71.189 49.6378 72.1352 50.3106C73.203 51.0698 74.4722 51.5579 77.0106 52.5343L89.5205 57.3458C91.4932 58.1045 91.4932 60.8955 89.5205 61.6543L77.0106 66.4658C74.4722 67.4422 73.203 67.9303 72.1352 68.6892C71.189 69.3623 70.3623 70.189 69.6892 71.1352C68.9303 72.203 68.4422 73.4722 67.4658 76.0106L62.6543 88.5205C61.8955 90.4932 59.1045 90.4932 58.3458 88.5205L53.5343 76.0106C52.558 73.4722 52.0698 72.203 51.3106 71.1352C50.6378 70.189 49.811 69.3623 48.8648 68.6892C47.7972 67.9303 46.5279 67.4422 43.9893 66.4658L31.4795 61.6543C29.5068 60.8955 29.5068 58.1045 31.4795 57.3458L43.9893 52.5343C46.5279 51.5579 47.7972 51.0698 48.8648 50.3106C49.811 49.6378 50.6378 48.811 51.3106 47.8648C52.0698 46.7972 52.558 45.5279 53.5343 42.9893L58.3458 30.4795Z" fill="white"/>
<g filter="url(#filter4_f_495_1386)">
<path d="M102.56 35.0934C102.56 18.2855 121.492 14.5452 130.958 14.7761C130.958 15.1609 131.882 16.8079 135.576 20.3172C139.27 23.8265 130.804 99.3545 126.11 136.68C108.409 140.913 71.4841 145.869 65.3889 131.831C57.7699 114.285 86.3988 112.668 103.946 96.0452C121.492 79.422 102.56 56.1033 102.56 35.0934Z" fill="white"/>
</g>
<g filter="url(#filter5_f_495_1386)">
<path d="M47.4618 24.6815C30.6539 24.6816 26.9137 5.7494 27.1446 -3.7167C27.5294 -3.7167 29.1763 -4.64018 32.6856 -8.33414C36.195 -12.0281 111.723 -3.56261 149.048 1.13187C153.281 18.8325 158.237 55.7576 144.2 61.8528C126.653 69.4718 125.037 40.8429 108.414 23.2961C91.7905 5.74938 68.4717 24.6814 47.4618 24.6815Z" fill="#8FDCD0" fill-opacity="0.7"/>
</g>
</g>
<rect x="2.5" y="2.5" width="115" height="115" rx="57.5" stroke="white" stroke-width="5"/>
<defs>
<filter id="filter0_f_495_1386" x="-54.8301" y="-74.7327" width="307.176" height="247.465" filterUnits="userSpaceOnUse" color-interpolation-filters="sRGB">
<feFlood flood-opacity="0" result="BackgroundImageFix"/>
<feBlend mode="normal" in="SourceGraphic" in2="BackgroundImageFix" result="shape"/>
<feGaussianBlur stdDeviation="22" result="effect1_foregroundBlur_495_1386"/>
</filter>
<filter id="filter1_f_495_1386" x="-27.8301" y="-46.7327" width="273.176" height="213.465" filterUnits="userSpaceOnUse" color-interpolation-filters="sRGB">
<feFlood flood-opacity="0" result="BackgroundImageFix"/>
<feBlend mode="normal" in="SourceGraphic" in2="BackgroundImageFix" result="shape"/>
<feGaussianBlur stdDeviation="13.5" result="effect1_foregroundBlur_495_1386"/>
</filter>
<filter id="filter2_f_495_1386" x="-84.8301" y="-53.7327" width="387.176" height="327.465" filterUnits="userSpaceOnUse" color-interpolation-filters="sRGB">
<feFlood flood-opacity="0" result="BackgroundImageFix"/>
<feBlend mode="normal" in="SourceGraphic" in2="BackgroundImageFix" result="shape"/>
<feGaussianBlur stdDeviation="42" result="effect1_foregroundBlur_495_1386"/>
</filter>
<filter id="filter3_f_495_1386" x="6" y="5" width="109" height="109" filterUnits="userSpaceOnUse" color-interpolation-filters="sRGB">
<feFlood flood-opacity="0" result="BackgroundImageFix"/>
<feBlend mode="normal" in="SourceGraphic" in2="BackgroundImageFix" result="shape"/>
<feGaussianBlur stdDeviation="12" result="effect1_foregroundBlur_495_1386"/>
</filter>
<filter id="filter4_f_495_1386" x="41.1263" y="-8.23373" width="118.358" height="172.341" filterUnits="userSpaceOnUse" color-interpolation-filters="sRGB">
<feFlood flood-opacity="0" result="BackgroundImageFix"/>
<feBlend mode="normal" in="SourceGraphic" in2="BackgroundImageFix" result="shape"/>
<feGaussianBlur stdDeviation="11.5" result="effect1_foregroundBlur_495_1386"/>
</filter>
<filter id="filter5_f_495_1386" x="-25.8653" y="-62.2421" width="232.341" height="178.358" filterUnits="userSpaceOnUse" color-interpolation-filters="sRGB">
<feFlood flood-opacity="0" result="BackgroundImageFix"/>
<feBlend mode="normal" in="SourceGraphic" in2="BackgroundImageFix" result="shape"/>
<feGaussianBlur stdDeviation="26.5" result="effect1_foregroundBlur_495_1386"/>
</filter>
<clipPath id="clip0_495_1386">
<rect width="120" height="120" rx="60" fill="white"/>
</clipPath>
</defs>
</svg>
