<svg width="559" height="559" viewBox="0 0 559 559" fill="none" xmlns="http://www.w3.org/2000/svg">
<rect width="559" height="559" fill="#101010"/>
<path fill-rule="evenodd" clip-rule="evenodd" d="M121.734 299.213V326.713H104.181V299.213C104.181 278.208 121.208 261.181 142.213 261.181H154.5V278.734H142.213C130.903 278.734 121.734 287.903 121.734 299.213Z" fill="white"/>
<path fill-rule="evenodd" clip-rule="evenodd" d="M104.181 240.702V229H121.734V240.702C121.734 261.707 104.707 278.734 83.7021 278.734H72V261.181H83.7021C95.0122 261.181 104.181 252.012 104.181 240.702Z" fill="white"/>
<path d="M200.629 312V246.545H226.837C231.652 246.545 235.668 247.259 238.886 248.687C242.103 250.114 244.521 252.096 246.141 254.631C247.76 257.146 248.57 260.043 248.57 263.325C248.57 265.881 248.058 268.129 247.035 270.068C246.013 271.986 244.606 273.562 242.817 274.798C241.048 276.013 239.024 276.876 236.744 277.387V278.026C239.237 278.133 241.57 278.836 243.744 280.136C245.938 281.435 247.717 283.257 249.081 285.601C250.445 287.923 251.126 290.693 251.126 293.911C251.126 297.384 250.263 300.484 248.538 303.211C246.833 305.917 244.308 308.058 240.963 309.635C237.618 311.212 233.495 312 228.594 312H200.629ZM214.468 300.686H225.75C229.606 300.686 232.419 299.951 234.187 298.481C235.956 296.989 236.84 295.008 236.84 292.536C236.84 290.725 236.403 289.127 235.53 287.742C234.656 286.357 233.41 285.271 231.79 284.482C230.192 283.694 228.285 283.3 226.07 283.3H214.468V300.686ZM214.468 273.935H224.727C226.624 273.935 228.307 273.605 229.777 272.945C231.268 272.263 232.44 271.304 233.293 270.068C234.166 268.832 234.603 267.352 234.603 265.626C234.603 263.261 233.761 261.354 232.078 259.905C230.416 258.456 228.051 257.732 224.983 257.732H214.468V273.935ZM265.301 312V246.545H279.14V300.59H307.201V312H265.301ZM335.374 246.545V312H321.536V246.545H335.374ZM406.678 246.545V312H394.725L366.248 270.803H365.769V312H351.93V246.545H364.075L392.328 287.71H392.903V246.545H406.678ZM466.684 267.703C466.236 266.148 465.608 264.773 464.798 263.58C463.989 262.366 462.998 261.343 461.826 260.512C460.675 259.66 459.354 259.01 457.863 258.562C456.393 258.115 454.763 257.891 452.973 257.891C449.628 257.891 446.687 258.722 444.152 260.384C441.638 262.046 439.677 264.464 438.271 267.639C436.865 270.793 436.162 274.649 436.162 279.209C436.162 283.768 436.854 287.646 438.239 290.842C439.624 294.038 441.584 296.478 444.12 298.161C446.655 299.823 449.649 300.654 453.101 300.654C456.233 300.654 458.907 300.1 461.123 298.992C463.36 297.863 465.065 296.276 466.236 294.23C467.43 292.185 468.026 289.766 468.026 286.975L470.839 287.391H453.964V276.972H481.354V285.217C481.354 290.97 480.139 295.913 477.71 300.047C475.281 304.159 471.936 307.334 467.675 309.571C463.413 311.787 458.534 312.895 453.037 312.895C446.9 312.895 441.51 311.542 436.865 308.836C432.22 306.109 428.598 302.241 425.998 297.234C423.42 292.206 422.131 286.24 422.131 279.337C422.131 274.031 422.898 269.301 424.432 265.146C425.988 260.97 428.161 257.433 430.952 254.536C433.743 251.638 436.993 249.433 440.7 247.92C444.408 246.407 448.424 245.651 452.749 245.651C456.457 245.651 459.908 246.194 463.104 247.281C466.3 248.346 469.134 249.859 471.606 251.819C474.099 253.779 476.133 256.112 477.71 258.818C479.287 261.503 480.299 264.464 480.746 267.703H466.684Z" fill="white"/>
</svg>
