<svg width="616" height="167" viewBox="0 0 616 167" fill="none" xmlns="http://www.w3.org/2000/svg">
<path fill-rule="evenodd" clip-rule="evenodd" d="M85 120V167H55V120C55 84.1015 84.1015 55 120 55H141V85H120C100.67 85 85 100.67 85 120Z" fill="white"/>
<path fill-rule="evenodd" clip-rule="evenodd" d="M55 20V0H85V20C85 55.8985 55.8985 85 20 85H0V55H20C39.33 55 55 39.33 55 20Z" fill="white"/>
<path d="M216.205 132V38.9091H255.024C261.993 38.9091 267.827 39.8939 272.524 41.8636C277.251 43.8333 280.796 46.5909 283.16 50.1364C285.554 53.6818 286.751 57.7879 286.751 62.4545C286.751 66 286.008 69.1667 284.524 71.9545C283.039 74.7121 280.993 77 278.387 78.8182C275.781 80.6364 272.766 81.9091 269.342 82.6364V83.5455C273.099 83.7273 276.569 84.7424 279.751 86.5909C282.963 88.4394 285.539 91.0152 287.478 94.3182C289.418 97.5909 290.387 101.47 290.387 105.955C290.387 110.955 289.115 115.424 286.569 119.364C284.024 123.273 280.342 126.364 275.524 128.636C270.705 130.879 264.857 132 257.978 132H216.205ZM238.705 113.864H252.615C257.493 113.864 261.084 112.939 263.387 111.091C265.721 109.242 266.887 106.667 266.887 103.364C266.887 100.97 266.327 98.9091 265.205 97.1818C264.084 95.4242 262.493 94.0758 260.433 93.1364C258.372 92.1667 255.902 91.6818 253.024 91.6818H238.705V113.864ZM238.705 77.1818H251.16C253.615 77.1818 255.796 76.7727 257.705 75.9545C259.615 75.1364 261.099 73.9545 262.16 72.4091C263.251 70.8636 263.796 69 263.796 66.8182C263.796 63.697 262.69 61.2424 260.478 59.4545C258.266 57.6667 255.281 56.7727 251.524 56.7727H238.705V77.1818ZM306.375 132V38.9091H328.875V113.727H367.603V132H306.375ZM406.92 38.9091V132H384.42V38.9091H406.92ZM505.443 38.9091V132H486.352L449.306 78.2727H448.715V132H426.215V38.9091H445.579L482.215 92.5455H482.988V38.9091H505.443ZM585.851 69.3182C585.336 67.4091 584.579 65.7273 583.579 64.2727C582.579 62.7879 581.351 61.5303 579.897 60.5C578.442 59.4697 576.776 58.697 574.897 58.1818C573.018 57.6364 570.957 57.3636 568.715 57.3636C564.2 57.3636 560.291 58.4545 556.988 60.6364C553.715 62.8182 551.185 66 549.397 70.1818C547.609 74.3333 546.715 79.3788 546.715 85.3182C546.715 91.2879 547.579 96.3788 549.306 100.591C551.033 104.803 553.533 108.015 556.806 110.227C560.079 112.439 564.048 113.545 568.715 113.545C572.836 113.545 576.321 112.879 579.17 111.545C582.048 110.182 584.23 108.258 585.715 105.773C587.2 103.288 587.942 100.364 587.942 97L592.124 97.5H569.488V81.0909H609.624V93.4091C609.624 101.742 607.851 108.879 604.306 114.818C600.791 120.758 595.942 125.318 589.76 128.5C583.609 131.682 576.533 133.273 568.533 133.273C559.654 133.273 551.851 131.348 545.124 127.5C538.397 123.652 533.154 118.167 529.397 111.045C525.639 103.894 523.76 95.4091 523.76 85.5909C523.76 77.9545 524.897 71.1818 527.17 65.2727C529.442 59.3333 532.609 54.303 536.67 50.1818C540.76 46.0606 545.488 42.9394 550.851 40.8182C556.245 38.697 562.048 37.6364 568.26 37.6364C573.654 37.6364 578.67 38.4091 583.306 39.9545C587.973 41.5 592.094 43.6818 595.67 46.5C599.276 49.3182 602.2 52.6667 604.442 56.5455C606.685 60.4242 608.079 64.6818 608.624 69.3182H585.851Z" fill="white"/>
</svg>
