<svg width="32" height="32" viewBox="0 0 32 32" fill="none" xmlns="http://www.w3.org/2000/svg">
<rect x="2" y="2" width="28" height="28" rx="14" fill="#18191B"/>
<path fill-rule="evenodd" clip-rule="evenodd" d="M16 6C10.4794 6 6 10.4794 6 16C6 21.5206 10.4794 26 16 26C21.5098 26 26 21.5206 26 16C26 10.4794 21.5098 6 16 6ZM22.6052 10.6095C23.7983 12.0629 24.5141 13.9176 24.5358 15.9241C24.2538 15.8699 21.4338 15.295 18.5922 15.6529C18.5271 15.5119 18.4729 15.3601 18.4078 15.2083C18.2343 14.7961 18.0391 14.3731 17.8438 13.9718C20.9891 12.692 22.4208 10.8482 22.6052 10.6095ZM16 7.47506C18.1692 7.47506 20.154 8.28851 21.6616 9.62256C21.5098 9.83948 20.2191 11.564 17.1822 12.7028C15.7831 10.1323 14.2321 8.0282 13.9935 7.70282C14.6334 7.55097 15.3059 7.47506 16 7.47506ZM12.3666 8.27766C12.5944 8.58134 14.1128 10.6963 15.5336 13.2126C11.5423 14.2755 8.01736 14.2538 7.63774 14.2538C8.19089 11.6074 9.98047 9.40564 12.3666 8.27766ZM7.45336 16.0109C7.45336 15.9241 7.45336 15.8373 7.45336 15.7506C7.82213 15.7614 11.9653 15.8156 16.2278 14.5358C16.4773 15.013 16.705 15.5011 16.9219 15.9891C16.8134 16.0217 16.6941 16.0542 16.5857 16.0867C12.1822 17.5076 9.83948 21.3904 9.64425 21.7158C8.2885 20.2083 7.45336 18.2018 7.45336 16.0109ZM16 24.5466C14.026 24.5466 12.2039 23.8742 10.7614 22.7462C10.9132 22.4317 12.6486 19.0911 17.4642 17.41C17.4859 17.3991 17.4968 17.3991 17.5184 17.3883C18.7223 20.5011 19.2104 23.1149 19.3406 23.8633C18.3102 24.308 17.1822 24.5466 16 24.5466ZM20.7614 23.0824C20.6746 22.5618 20.2191 20.0673 19.1019 16.9978C21.7809 16.5748 24.1236 17.269 24.4165 17.3666C24.0478 19.7419 22.6811 21.7918 20.7614 23.0824Z" fill="white"/>
</svg>
