<svg width="32" height="32" viewBox="0 0 32 32" fill="none" xmlns="http://www.w3.org/2000/svg">
<rect x="2" y="2" width="28" height="28" rx="14" fill="#18191B"/>
<g clip-path="url(#clip0_5344_2237)">
<path d="M13 25C14.6561 25 16.0001 23.656 16.0001 22V18.9999H13C11.344 18.9999 10 20.344 10 22C10 23.656 11.344 25 13 25Z" fill="white"/>
<path d="M10 16C10 14.344 11.344 12.9999 13 12.9999H16.0001V18.9999H13C11.344 19 10 17.656 10 16Z" fill="white"/>
<path d="M10 10C10 8.34402 11.344 7 13 7H16.0001V13H13C11.344 13 10 11.656 10 10Z" fill="white"/>
<path d="M16 7H19C20.6561 7 22.0001 8.34402 22.0001 10C22.0001 11.656 20.6561 13 19 13H16V7Z" fill="white"/>
<path d="M22.0001 16C22.0001 17.656 20.6561 19 19 19C17.344 19 16 17.656 16 16C16 14.344 17.344 12.9999 19 12.9999C20.6561 12.9999 22.0001 14.344 22.0001 16Z" fill="white"/>
</g>
<defs>
<clipPath id="clip0_5344_2237">
<rect width="18" height="18" fill="white" transform="translate(7 7)"/>
</clipPath>
</defs>
</svg>
