<svg width="610" height="167" viewBox="0 0 610 167" fill="none" xmlns="http://www.w3.org/2000/svg">
<path fill-rule="evenodd" clip-rule="evenodd" d="M85 120V167H55V120C55 84.1015 84.1015 55 120 55H141V85H120C100.67 85 85 100.67 85 120Z" fill="white"/>
<path fill-rule="evenodd" clip-rule="evenodd" d="M55 20V0H85V20C85 55.8985 55.8985 85 20 85H0V55H20C39.33 55 55 39.33 55 20Z" fill="white"/>
<path d="M584.73 66.4811C584.187 64.4676 583.388 62.6938 582.333 61.1597C581.278 59.5936 579.984 58.2673 578.45 57.1806C576.916 56.094 575.158 55.279 573.176 54.7357C571.195 54.1604 569.021 53.8728 566.656 53.8728C561.894 53.8728 557.771 55.0233 554.288 57.3245C550.836 59.6256 548.167 62.9814 546.282 67.3919C544.396 71.7705 543.453 77.0919 543.453 83.3561C543.453 89.6522 544.364 95.0216 546.186 99.464C548.008 103.906 550.644 107.294 554.096 109.627C557.548 111.96 561.735 113.127 566.656 113.127C571.003 113.127 574.678 112.424 577.683 111.018C580.719 109.579 583.02 107.55 584.586 104.929C586.152 102.308 586.935 99.2243 586.935 95.6767L591.346 96.2041H567.471V78.8976H609.803V91.8895C609.803 100.679 607.933 108.205 604.194 114.469C600.486 120.734 595.373 125.544 588.853 128.899C582.365 132.255 574.902 133.933 566.465 133.933C557.1 133.933 548.871 131.904 541.775 127.845C534.68 123.786 529.151 118.001 525.188 110.49C521.225 102.948 519.243 93.9988 519.243 83.6437C519.243 75.5897 520.442 68.4466 522.839 62.2144C525.236 55.9502 528.576 50.6448 532.858 46.2982C537.173 41.9516 542.159 38.6597 547.816 36.4225C553.505 34.1853 559.625 33.0667 566.177 33.0667C571.866 33.0667 577.155 33.8816 582.045 35.5116C586.967 37.1416 591.314 39.4427 595.085 42.415C598.888 45.3873 601.972 48.9189 604.338 53.0098C606.703 57.1007 608.173 61.5912 608.748 66.4811H584.73Z" fill="white"/>
<path d="M500.207 34.4089V132.591H480.072L441 75.9253H440.377V132.591H416.647V34.4089H437.069L475.709 90.9785H476.524V34.4089H500.207Z" fill="white"/>
<path d="M396.579 34.4089V132.591H372.849V34.4089H396.579Z" fill="white"/>
<path d="M290.818 132.591V34.4089H314.549V113.319H355.394V132.591H290.818Z" fill="white"/>
<path d="M196 132.591V34.4089H236.941C244.292 34.4089 250.444 35.4476 255.398 37.5251C260.384 39.6025 264.123 42.5109 266.616 46.2502C269.141 49.9895 270.403 54.3202 270.403 59.242C270.403 62.9814 269.62 66.3212 268.054 69.2616C266.488 72.1699 264.331 74.5829 261.582 76.5006C258.834 78.4182 255.654 79.7605 252.042 80.5275V81.4864C256.005 81.6781 259.665 82.7488 263.021 84.6984C266.408 86.6479 269.125 89.3645 271.17 92.8482C273.216 96.2999 274.239 100.391 274.239 105.121C274.239 110.394 272.896 115.109 270.212 119.263C267.527 123.386 263.644 126.646 258.562 129.043C253.48 131.408 247.312 132.591 240.057 132.591H196ZM219.73 113.463H234.4C239.546 113.463 243.333 112.488 245.762 110.538C248.223 108.589 249.453 105.872 249.453 102.388C249.453 99.8635 248.862 97.6902 247.68 95.8685C246.497 94.0148 244.819 92.5925 242.646 91.6018C240.473 90.579 237.868 90.0677 234.832 90.0677H219.73V113.463ZM219.73 74.7747H232.866C235.455 74.7747 237.756 74.3432 239.77 73.4803C241.783 72.6174 243.349 71.3709 244.468 69.741C245.618 68.111 246.194 66.1454 246.194 63.8443C246.194 60.5524 245.027 57.9636 242.694 56.078C240.361 54.1923 237.213 53.2495 233.25 53.2495H219.73V74.7747Z" fill="white"/>
</svg>
