<svg width="32" height="32" viewBox="0 0 32 32" fill="none" xmlns="http://www.w3.org/2000/svg">
<circle cx="16" cy="16" r="14" fill="#18191B"/>
<path d="M20.4008 10.4258L16.0466 13.8239L11.5928 10.4258V10.4267L11.5982 10.4313V15.1896L15.9964 18.6612L20.4008 15.3237V10.4258Z" fill="#ACACAC"/>
<path d="M21.5439 9.59918L20.4004 10.4258V15.3236L23.9986 12.5611V10.8969C23.9986 10.8969 23.5618 8.52005 21.5439 9.59918Z" fill="white"/>
<path d="M20.4004 15.3237V21.6764H23.1582C23.1582 21.6764 23.943 21.5956 23.9995 20.701V12.5612L20.4004 15.3237Z" fill="white"/>
<path d="M11.5984 21.6818V15.1895L11.5928 15.1849L11.5984 21.6818Z" fill="white"/>
<path d="M11.5928 10.4267L10.4556 9.60476C8.43767 8.52563 8 10.9016 8 10.9016V12.5657L11.5928 15.185V10.4267Z" fill="white"/>
<path d="M11.5928 10.4266V15.1849L11.5984 15.1895V10.4312L11.5928 10.4266Z" fill="white"/>
<path d="M8 12.5666V20.7065C8.05561 21.6019 8.84126 21.6818 8.84126 21.6818H11.5991L11.5928 15.185L8 12.5666Z" fill="white"/>
</svg>
