<svg width="16" height="13" viewBox="0 0 16 13" fill="none" xmlns="http://www.w3.org/2000/svg">
<g clip-path="url(#clip0_522_1379)">
<path d="M12.4008 1.42578L8.04659 4.82391L3.59277 1.42578L3.59815 1.43129V6.18958L7.99636 9.66118L12.4008 6.32367V1.42578Z" fill="#71ADCE"/>
<path d="M13.5439 0.599367L12.4004 1.42593V6.32383L15.9986 3.56124V1.89708C15.9986 1.89708 15.5618 -0.479767 13.5439 0.599367Z" fill="#B2DBF1"/>
<path d="M12.4004 6.32362V12.6763H15.1582C15.1582 12.6763 15.943 12.5955 15.9995 11.7009V3.56104L12.4004 6.32362Z" fill="#B2DBF1"/>
<path d="M3.59836 12.6819V6.18965L3.59277 6.18506L3.59836 12.6819Z" fill="#B2DBF1"/>
<path d="M3.59283 1.4268L2.45561 0.60482C0.437668 -0.474313 0 1.90162 0 1.90162V3.56578L3.59283 6.18509V1.4268Z" fill="#B2DBF1"/>
<path d="M3.59277 1.42676V6.18505L3.59836 6.18964V1.43135L3.59277 1.42676Z" fill="#B2DBF1"/>
<path d="M0 3.56641V11.7063C0.0556054 12.6017 0.841256 12.6816 0.841256 12.6816H3.5991L3.59283 6.1848L0 3.56641Z" fill="#B2DBF1"/>
</g>
<defs>
<clipPath id="clip0_522_1379">
<rect width="16" height="13" fill="white"/>
</clipPath>
</defs>
</svg>
