<svg width="16" height="13" viewBox="0 0 16 13" fill="none" xmlns="http://www.w3.org/2000/svg">
<path d="M12.4008 1.42578L8.04659 4.82391L3.59277 1.42578V1.4267L3.59815 1.43129V6.18958L7.99636 9.66118L12.4008 6.32367V1.42578Z" fill="#ACACAC"/>
<path d="M13.5439 0.599184L12.4004 1.42575V6.32365L15.9986 3.56106V1.8969C15.9986 1.8969 15.5618 -0.47995 13.5439 0.599184Z" fill="white"/>
<path d="M12.4004 6.32374V12.6764H15.1582C15.1582 12.6764 15.943 12.5956 15.9995 11.701V3.56116L12.4004 6.32374Z" fill="white"/>
<path d="M3.59836 12.6818V6.18953L3.59277 6.18494L3.59836 12.6818Z" fill="white"/>
<path d="M3.59283 1.42674L2.45561 0.60476C0.437668 -0.474374 0 1.90156 0 1.90156V3.56572L3.59283 6.18503V1.42674Z" fill="white"/>
<path d="M3.59277 1.42664V6.18493L3.59836 6.18952V1.43123L3.59277 1.42664Z" fill="white"/>
<path d="M0 3.56659V11.7065C0.0556054 12.6019 0.841256 12.6818 0.841256 12.6818H3.5991L3.59283 6.18498L0 3.56659Z" fill="white"/>
</svg>
