<svg width="1032" height="636" viewBox="0 0 1032 636" fill="none" xmlns="http://www.w3.org/2000/svg">
<mask id="mask0_20_11007" style="mask-type:alpha" maskUnits="userSpaceOnUse" x="0" y="123" width="987" height="513">
<path d="M799.555 156.666C702.475 108.943 561.863 224.227 412.983 146.189C223.99 47.1244 -62.1083 293.953 361.778 456.222C613.908 552.741 1156.18 331.979 799.555 156.666Z" fill="#D9D9D9"/>
</mask>
<g mask="url(#mask0_20_11007)">
<line x1="-867.945" y1="464.878" x2="5.89807" y2="464.878" stroke="white" stroke-width="0.72881"/>
<line x1="-867.945" y1="278.303" x2="5.89807" y2="278.303" stroke="white" stroke-width="0.72881"/>
<line x1="-867.945" y1="371.59" x2="5.89807" y2="371.59" stroke="white" stroke-width="0.72881"/>
<line x1="-867.945" y1="558.165" x2="5.89807" y2="558.165" stroke="white" stroke-width="0.72881"/>
<line x1="-867.945" y1="185.015" x2="5.89807" y2="185.015" stroke="white" stroke-width="0.72881"/>
<line x1="-867.945" y1="418.234" x2="5.89807" y2="418.234" stroke="white" stroke-width="0.72881"/>
<line x1="-867.945" y1="604.809" x2="5.89807" y2="604.809" stroke="white" stroke-width="0.72881"/>
<line x1="-867.945" y1="231.659" x2="5.89807" y2="231.659" stroke="white" stroke-width="0.72881"/>
<line x1="-867.945" y1="324.946" x2="5.89807" y2="324.946" stroke="white" stroke-width="0.72881"/>
<line x1="-867.945" y1="511.522" x2="5.89807" y2="511.522" stroke="white" stroke-width="0.72881"/>
<line x1="-867.945" y1="138.371" x2="5.89807" y2="138.371" stroke="white" stroke-width="0.72881"/>
<line x1="5.05469" y1="464.878" x2="878.898" y2="464.878" stroke="white" stroke-width="0.72881"/>
<line x1="5.05469" y1="278.303" x2="878.898" y2="278.303" stroke="white" stroke-width="0.72881"/>
<line x1="5.05469" y1="371.59" x2="878.898" y2="371.59" stroke="white" stroke-width="0.72881"/>
<line x1="5.05469" y1="558.165" x2="878.898" y2="558.165" stroke="white" stroke-width="0.72881"/>
<line x1="5.05469" y1="185.015" x2="878.898" y2="185.015" stroke="white" stroke-width="0.72881"/>
<line x1="5.05469" y1="418.234" x2="878.898" y2="418.234" stroke="white" stroke-width="0.72881"/>
<line x1="5.05469" y1="604.809" x2="878.898" y2="604.809" stroke="white" stroke-width="0.72881"/>
<line x1="5.05469" y1="231.659" x2="878.898" y2="231.659" stroke="white" stroke-width="0.72881"/>
<line x1="5.05469" y1="324.946" x2="878.898" y2="324.946" stroke="white" stroke-width="0.72881"/>
<line x1="5.05469" y1="511.522" x2="878.898" y2="511.522" stroke="white" stroke-width="0.72881"/>
<line x1="5.05469" y1="138.371" x2="878.898" y2="138.371" stroke="white" stroke-width="0.72881"/>
<line x1="45.6183" y1="75.3296" x2="45.6183" y2="750.208" stroke="white" stroke-width="0.72881"/>
<line x1="372.537" y1="75.3296" x2="372.537" y2="750.208" stroke="white" stroke-width="0.72881"/>
<line x1="185.96" y1="75.3296" x2="185.96" y2="750.208" stroke="white" stroke-width="0.72881"/>
<line x1="559.11" y1="75.3296" x2="559.11" y2="750.208" stroke="white" stroke-width="0.72881"/>
<line x1="745.687" y1="75.3296" x2="745.687" y2="750.208" stroke="white" stroke-width="0.72881"/>
<line x1="92.672" y1="75.3296" x2="92.672" y2="750.208" stroke="white" stroke-width="0.72881"/>
<line x1="465.822" y1="75.3296" x2="465.822" y2="750.208" stroke="white" stroke-width="0.72881"/>
<line x1="279.248" y1="75.3296" x2="279.248" y2="750.208" stroke="white" stroke-width="0.72881"/>
<line x1="652.399" y1="75.3296" x2="652.399" y2="750.208" stroke="white" stroke-width="0.72881"/>
<line x1="838.976" y1="75.3296" x2="838.976" y2="750.208" stroke="white" stroke-width="0.72881"/>
<line x1="46.0294" y1="75.3296" x2="46.0294" y2="750.208" stroke="white" stroke-width="0.72881"/>
<line x1="419.18" y1="75.3296" x2="419.18" y2="750.208" stroke="white" stroke-width="0.72881"/>
<line x1="232.603" y1="75.3296" x2="232.603" y2="750.208" stroke="white" stroke-width="0.72881"/>
<line x1="605.756" y1="75.3296" x2="605.756" y2="750.208" stroke="white" stroke-width="0.72881"/>
<line x1="792.33" y1="75.3296" x2="792.33" y2="750.208" stroke="white" stroke-width="0.72881"/>
<line x1="139.318" y1="75.3296" x2="139.318" y2="750.208" stroke="white" stroke-width="0.72881"/>
<line x1="512.468" y1="75.3296" x2="512.468" y2="750.208" stroke="white" stroke-width="0.72881"/>
<line x1="325.892" y1="75.3296" x2="325.892" y2="750.208" stroke="white" stroke-width="0.72881"/>
<line x1="699.042" y1="75.3296" x2="699.042" y2="750.208" stroke="white" stroke-width="0.72881"/>
<line x1="885.618" y1="75.3296" x2="885.618" y2="750.208" stroke="white" stroke-width="0.72881"/>
</g>
</svg>
