<svg width="150" height="150" viewBox="0 0 150 150" fill="none" xmlns="http://www.w3.org/2000/svg">
<g clip-path="url(#clip0_492_1374)">
<path d="M70.3333 12.1333C71.977 7.85989 78.0231 7.85987 79.6668 12.1333L90.09 39.2332C92.205 44.7324 93.2625 47.482 94.9065 49.7948C96.3645 51.8446 98.1555 53.6356 100.205 55.0931C102.518 56.7377 105.268 57.7952 110.767 59.9103L137.867 70.3333C142.14 71.977 142.14 78.0231 137.867 79.6668L110.767 90.09C105.268 92.205 102.518 93.2625 100.205 94.9065C98.1555 96.3645 96.3645 98.1555 94.9065 100.205C93.2625 102.518 92.205 105.268 90.09 110.767L79.6668 137.867C78.0231 142.14 71.977 142.14 70.3333 137.867L59.9103 110.767C57.7952 105.268 56.7377 102.518 55.0931 100.205C53.6356 98.1555 51.8446 96.3645 49.7948 94.9065C47.482 93.2625 44.7324 92.205 39.2332 90.09L12.1333 79.6668C7.85986 78.0231 7.85989 71.977 12.1333 70.3333L39.2331 59.9103C44.7323 57.7952 47.482 56.7377 49.7948 55.0931C51.8446 53.6356 53.6356 51.8446 55.0931 49.7948C56.7377 47.482 57.7952 44.7323 59.9103 39.2331L70.3333 12.1333Z" fill="white"/>
</g>
<defs>
<clipPath id="clip0_492_1374">
<rect width="150" height="150" rx="8" fill="white"/>
</clipPath>
</defs>
</svg>
