<svg width="90" height="29" viewBox="0 0 90 29" fill="none" xmlns="http://www.w3.org/2000/svg">
<path d="M0 21.9312V1.53185H9.38369C10.8602 1.53185 12.1036 1.73585 13.1139 2.14383C14.1435 2.55182 14.9207 3.12494 15.4452 3.86321C15.9892 4.60147 16.2612 5.46601 16.2612 6.45683C16.2612 7.68079 15.9795 8.69105 15.4161 9.48759C14.8721 10.2841 14.0658 10.8184 12.9973 11.0904L12.9099 10.5367C13.8035 10.7504 14.5807 11.1001 15.2412 11.5858C15.9018 12.0521 16.4166 12.6252 16.7857 13.3052C17.1549 13.9852 17.3394 14.7623 17.3394 15.6365C17.3394 16.7051 17.1452 17.6376 16.7566 18.4342C16.368 19.2113 15.8143 19.8621 15.0955 20.3867C14.3961 20.9112 13.5801 21.2998 12.6476 21.5523C11.7345 21.8049 10.7436 21.9312 9.67511 21.9312H0ZM5.82838 16.9771H9.50026C9.86939 16.9771 10.1802 16.9188 10.4328 16.8022C10.6854 16.6662 10.8796 16.4719 11.0156 16.2194C11.1516 15.9474 11.2196 15.6268 11.2196 15.2577C11.2196 14.9274 11.1419 14.6554 10.9865 14.4417C10.8505 14.2086 10.6465 14.0337 10.3745 13.9172C10.1025 13.7812 9.76254 13.7132 9.35455 13.7132H5.82838V16.9771ZM5.82838 9.51674H8.30544C8.75229 9.51674 9.1117 9.45845 9.38369 9.34188C9.67511 9.22532 9.87911 9.06018 9.99567 8.84647C10.1317 8.61334 10.1997 8.33163 10.1997 8.00136C10.1997 7.55451 10.0442 7.1951 9.7334 6.9231C9.44198 6.63169 8.94657 6.48598 8.24716 6.48598H5.82838V9.51674Z" fill="#4C58B5"/>
<path d="M23.9521 21.9312V0.366177H29.8679V21.9312H23.9521Z" fill="#4C58B5"/>
<path d="M51.1236 21.9312V6.34027H56.6022L56.8937 9.48759L55.6406 9.8373C55.8543 9.09903 56.2331 8.4482 56.7771 7.88479C57.3405 7.30195 58.0108 6.84539 58.7879 6.51512C59.565 6.18484 60.3907 6.01971 61.2649 6.01971C62.4306 6.01971 63.4214 6.26256 64.2374 6.74825C65.0534 7.23395 65.6654 7.95279 66.0733 8.90475C66.5008 9.8373 66.7145 10.9738 66.7145 12.3144V21.9312H60.7987V12.8098C60.7987 12.3824 60.7307 12.0229 60.5947 11.7315C60.4587 11.4401 60.2547 11.2167 59.9827 11.0613C59.7107 10.9058 59.3901 10.8281 59.021 10.8281C58.7296 10.8281 58.4576 10.8767 58.205 10.9738C57.9719 11.0515 57.7679 11.1778 57.5931 11.3527C57.4182 11.5275 57.2822 11.7218 57.1851 11.9355C57.0879 12.1492 57.0394 12.3921 57.0394 12.6641V21.9312H54.096C53.3578 21.9312 52.7361 21.9312 52.2309 21.9312C51.7453 21.9312 51.3761 21.9312 51.1236 21.9312Z" fill="#4C58B5"/>
<path d="M81.2574 28.6338C79.8586 28.6338 78.4695 28.4395 77.0901 28.051C75.7302 27.6624 74.6131 27.1573 73.7388 26.5356L75.7496 22.5723C76.177 22.8443 76.6239 23.0774 77.0901 23.2717C77.5564 23.466 78.0421 23.6117 78.5472 23.7088C79.0718 23.806 79.6255 23.8546 80.2083 23.8546C81.1214 23.8546 81.8597 23.7283 82.4231 23.4757C82.9865 23.2426 83.3945 22.8637 83.6471 22.3392C83.9191 21.8146 84.0551 21.1444 84.0551 20.3284V17.997L85.3664 18.1136C85.211 18.7741 84.871 19.357 84.3465 19.8621C83.8219 20.3672 83.1711 20.7655 82.394 21.0569C81.6168 21.3483 80.7912 21.4941 79.9169 21.4941C78.5375 21.4941 77.3136 21.1832 76.245 20.5615C75.1959 19.9398 74.3605 19.0753 73.7388 17.9679C73.1365 16.8411 72.8354 15.52 72.8354 14.0046C72.8354 12.4309 73.1365 11.0515 73.7388 9.86644C74.3411 8.66191 75.1571 7.71965 76.1867 7.03967C77.2358 6.3597 78.4307 6.01971 79.7712 6.01971C80.354 6.01971 80.9077 6.07799 81.4323 6.19456C81.9568 6.31112 82.4425 6.47626 82.8894 6.68997C83.3362 6.88425 83.7345 7.1271 84.0842 7.41852C84.4339 7.70994 84.7156 8.0305 84.9293 8.3802C85.1624 8.7299 85.3179 9.10875 85.3956 9.51674L84.2008 9.77901L84.5213 6.34027H90V20.4158C90 21.7175 89.796 22.8734 89.388 23.8837C88.9995 24.9134 88.4263 25.7779 87.6686 26.4773C86.911 27.1962 85.9881 27.7304 84.9002 28.0801C83.8316 28.4493 82.6174 28.6338 81.2574 28.6338ZM81.4031 17.2685C82.0054 17.2685 82.5105 17.1422 82.9185 16.8896C83.3459 16.6371 83.6665 16.2777 83.8802 15.8114C84.0939 15.3257 84.2008 14.7428 84.2008 14.0629C84.2008 13.3829 84.0939 12.8001 83.8802 12.3144C83.6665 11.8287 83.3459 11.4595 82.9185 11.207C82.5105 10.9544 82.0054 10.8281 81.4031 10.8281C80.8009 10.8281 80.2957 10.9544 79.8878 11.207C79.4798 11.4595 79.1689 11.8287 78.9552 12.3144C78.7415 12.8001 78.6347 13.3829 78.6347 14.0629C78.6347 14.7428 78.7415 15.3257 78.9552 15.8114C79.1689 16.2777 79.4798 16.6371 79.8878 16.8896C80.2957 17.1422 80.8009 17.2685 81.4031 17.2685Z" fill="#4C58B5"/>
<path d="M23.9521 21.9312V0.366177H29.8679V21.9312H23.9521Z" fill="#4C58B5"/>
<path d="M40.3246 5.22418C40.3669 5.11662 40.5191 5.11662 40.5615 5.22418L40.6224 5.37915C41.7068 8.13589 43.8185 10.3861 46.4945 11.6568C46.5799 11.6973 46.5809 11.8194 46.4955 11.8599C43.826 13.1275 41.8029 15.4468 40.9093 18.2636L40.5754 19.3159C40.5344 19.4451 40.3516 19.4451 40.3106 19.3159L39.9768 18.2636C39.0832 15.4468 37.06 13.1275 34.3906 11.8599C34.3052 11.8194 34.3062 11.6973 34.3916 11.6568C37.0675 10.3861 39.1792 8.13589 40.2637 5.37915L40.3246 5.22418Z" fill="#4C58B5"/>
</svg>
