<svg width="20" height="20" viewBox="0 0 20 20" fill="none" xmlns="http://www.w3.org/2000/svg">
<path fill-rule="evenodd" clip-rule="evenodd" d="M11.8902 1.91208L2.85726 2.57621C2.12852 2.63893 1.875 3.11294 1.875 3.68103V13.5382C1.875 13.9806 2.03286 14.3593 2.41371 14.8653L4.53706 17.6136C4.88592 18.0561 5.20311 18.151 5.86916 18.1195L16.3589 17.4874C17.2458 17.4245 17.5 17.0134 17.5 16.3185V5.22915C17.5 4.87003 17.3575 4.76652 16.9379 4.46005L13.9825 2.38593C13.285 1.88104 12.9998 1.81734 11.8902 1.91208ZM6.10636 5.04764C5.2498 5.10501 5.05554 5.11801 4.56906 4.72427L3.3323 3.74506C3.2066 3.61831 3.26978 3.4602 3.58648 3.42868L12.2701 2.79705C12.9993 2.73367 13.379 2.98668 13.6642 3.20768L15.1535 4.28179C15.2172 4.3138 15.3755 4.50279 15.185 4.50279L6.21736 5.04017L6.10636 5.04764ZM5.10778 16.2238V6.80977C5.10778 6.39865 5.23462 6.20902 5.61433 6.17717L15.9142 5.5769C16.2636 5.54554 16.4214 5.76653 16.4214 6.177V15.5283C16.4214 15.9394 16.3578 16.2871 15.7875 16.3185L5.93119 16.8873C5.36097 16.9186 5.10778 16.7296 5.10778 16.2238ZM14.8373 7.31449C14.9005 7.59886 14.8373 7.88323 14.5516 7.91573L14.0766 8.0095V14.96C13.664 15.181 13.2843 15.3073 12.967 15.3073C12.4598 15.3073 12.3331 15.1492 11.9532 14.6757L8.84662 9.81046V14.5175L9.82936 14.739C9.82936 14.739 9.82936 15.3078 9.03647 15.3078L6.8506 15.434C6.78693 15.3073 6.8506 14.9915 7.07212 14.9287L7.643 14.771V8.54736L6.85076 8.4835C6.7871 8.19913 6.94544 7.7885 7.38948 7.75665L9.73484 7.59951L12.9671 12.5276V8.16777L12.1432 8.07352C12.0796 7.72529 12.3331 7.47228 12.6498 7.4414L14.8373 7.31449Z" fill="#B2DBF1"/>
</svg>
