<svg width="32" height="32" viewBox="0 0 32 32" fill="none" xmlns="http://www.w3.org/2000/svg">
<circle cx="16" cy="16" r="14" fill="#18191B"/>
<path fill-rule="evenodd" clip-rule="evenodd" d="M18.8902 7.91208L9.85726 8.57621C9.12852 8.63893 8.875 9.11294 8.875 9.68103V19.5382C8.875 19.9806 9.03286 20.3593 9.41371 20.8653L11.5371 23.6136C11.8859 24.0561 12.2031 24.151 12.8692 24.1195L23.3589 23.4874C24.2458 23.4245 24.5 23.0134 24.5 22.3185V11.2292C24.5 10.87 24.3575 10.7665 23.9379 10.4601L20.9825 8.38593C20.285 7.88104 19.9998 7.81718 18.8902 7.91192V7.91208ZM13.1064 11.0476C12.2498 11.105 12.0555 11.118 11.5691 10.7243L10.3323 9.74506C10.2066 9.61831 10.2698 9.4602 10.5865 9.42868L19.2701 8.79705C19.9993 8.73367 20.379 8.98668 20.6642 9.20768L22.1535 10.2818C22.2172 10.3138 22.3755 10.5028 22.185 10.5028L13.2174 11.0402L13.1064 11.0476ZM12.1078 22.2238V12.8098C12.1078 12.3987 12.2346 12.209 12.6143 12.1772L22.9142 11.5769C23.2636 11.5455 23.4214 11.7665 23.4214 12.177V21.5283C23.4214 21.9394 23.3578 22.2871 22.7875 22.3185L12.9312 22.8873C12.361 22.9186 12.1079 22.7296 12.1079 22.2238H12.1078ZM21.8373 13.3145C21.9005 13.5989 21.8373 13.8832 21.5516 13.9157L21.0766 14.0095V20.96C20.664 21.181 20.2843 21.3073 19.967 21.3073C19.4598 21.3073 19.3331 21.1492 18.9532 20.6757L15.8466 15.8105V20.5175L16.8294 20.739C16.8294 20.739 16.8294 21.3078 16.0365 21.3078L13.8506 21.434C13.7869 21.3073 13.8506 20.9915 14.0721 20.9287L14.643 20.771V14.5474L13.8508 14.4835C13.7871 14.1991 13.9454 13.7885 14.3895 13.7566L16.7348 13.5995L19.9671 18.5276V14.1678L19.1432 14.0735C19.0796 13.7253 19.3331 13.4723 19.6498 13.4414L21.8373 13.3145Z" fill="white"/>
</svg>
