<svg width="16" height="16" viewBox="0 0 16 16" fill="none" xmlns="http://www.w3.org/2000/svg">
<g clip-path="url(#clip0_22_11171)">
<path d="M5.33366 3.3335H4.00033C3.6467 3.3335 3.30756 3.47397 3.05752 3.72402C2.80747 3.97407 2.66699 4.31321 2.66699 4.66683V12.6668C2.66699 13.0205 2.80747 13.3596 3.05752 13.6096C3.30756 13.8597 3.6467 14.0002 4.00033 14.0002H7.79833" stroke="white" stroke-linecap="round" stroke-linejoin="round"/>
<path d="M11.9997 8.00016V4.66683C11.9997 4.31321 11.8592 3.97407 11.6092 3.72402C11.3591 3.47397 11.02 3.3335 10.6663 3.3335H9.33301" stroke="white" stroke-linecap="round" stroke-linejoin="round"/>
<path d="M5.33301 3.33333C5.33301 2.97971 5.47348 2.64057 5.72353 2.39052C5.97358 2.14048 6.31272 2 6.66634 2H7.99967C8.3533 2 8.69243 2.14048 8.94248 2.39052C9.19253 2.64057 9.33301 2.97971 9.33301 3.33333C9.33301 3.68696 9.19253 4.02609 8.94248 4.27614C8.69243 4.52619 8.3533 4.66667 7.99967 4.66667H6.66634C6.31272 4.66667 5.97358 4.52619 5.72353 4.27614C5.47348 4.02609 5.33301 3.68696 5.33301 3.33333Z" stroke="white" stroke-linecap="round" stroke-linejoin="round"/>
<path d="M5.33301 7.3335H7.99967" stroke="white" stroke-linecap="round" stroke-linejoin="round"/>
<path d="M5.33301 10H7.33301" stroke="white" stroke-linecap="round" stroke-linejoin="round"/>
<path d="M9.33301 11.6667C9.33301 12.1087 9.5086 12.5326 9.82116 12.8452C10.1337 13.1577 10.5576 13.3333 10.9997 13.3333C11.4417 13.3333 11.8656 13.1577 12.1782 12.8452C12.4907 12.5326 12.6663 12.1087 12.6663 11.6667C12.6663 11.2246 12.4907 10.8007 12.1782 10.4882C11.8656 10.1756 11.4417 10 10.9997 10C10.5576 10 10.1337 10.1756 9.82116 10.4882C9.5086 10.8007 9.33301 11.2246 9.33301 11.6667Z" stroke="white" stroke-linecap="round" stroke-linejoin="round"/>
<path d="M12.333 13L13.9997 14.6667" stroke="white" stroke-linecap="round" stroke-linejoin="round"/>
</g>
<defs>
<clipPath id="clip0_22_11171">
<rect width="16" height="16" fill="white"/>
</clipPath>
</defs>
</svg>
