<svg width="13" height="16" viewBox="0 0 13 16" fill="none" xmlns="http://www.w3.org/2000/svg">
<path d="M6.2107 0.896008C6.25301 0.788449 6.40522 0.788449 6.44754 0.896009L6.5085 1.05099C7.59292 3.80772 9.70461 6.0579 12.3806 7.32862C12.466 7.36918 12.467 7.49118 12.3816 7.53174C9.71211 8.79937 7.68893 11.1186 6.79535 13.9354L6.46151 14.9878C6.42053 15.117 6.23771 15.117 6.19672 14.9878L5.86288 13.9354C4.9693 11.1186 2.94612 8.79937 0.27667 7.53174C0.191266 7.49118 0.192253 7.36918 0.277657 7.32862C2.95363 6.0579 5.06531 3.80772 6.14973 1.05099L6.2107 0.896008Z" fill="#1C2024"/>
</svg>
