<svg width="13" height="16" viewBox="0 0 13 16" fill="none" xmlns="http://www.w3.org/2000/svg">
<path d="M6.61064 0.832621C6.65107 0.72434 6.80327 0.721683 6.84745 0.828488L6.91111 0.982377C8.04347 3.71977 10.1941 5.93275 12.8918 7.15657V7.15657C12.9779 7.19563 12.9811 7.3176 12.8964 7.35964V7.35964C10.2495 8.67367 8.26706 11.0279 7.42278 13.8598L7.10736 14.9178C7.06863 15.0477 6.88584 15.0509 6.84261 14.9225L6.49045 13.8761C5.54785 11.0753 3.4845 8.79175 0.793331 7.5709V7.5709C0.707231 7.53184 0.706089 7.40984 0.790773 7.3678V7.3678C3.44416 6.05057 5.51625 3.76388 6.55239 0.988638L6.61064 0.832621Z" fill="#F3F5FC"/>
</svg>
