<svg width="24" height="24" viewBox="0 0 24 24" fill="none" xmlns="http://www.w3.org/2000/svg">
<path d="M4.50708 22V17M4.50708 7V2M2.00708 4.5H7.00708M2.00708 19.5H7.00708M13.0071 3L11.2729 7.50886C10.9909 8.24209 10.8499 8.60871 10.6306 8.91709C10.4363 9.1904 10.1975 9.42919 9.92417 9.62353C9.61579 9.84281 9.24917 9.98381 8.51594 10.2658L4.00708 12L8.51594 13.7342C9.24917 14.0162 9.61579 14.1572 9.92417 14.3765C10.1975 14.5708 10.4363 14.8096 10.6306 15.0829C10.8499 15.3913 10.9909 15.7579 11.2729 16.4911L13.0071 21L14.7413 16.4911C15.0233 15.7579 15.1643 15.3913 15.3836 15.0829C15.5779 14.8096 15.8167 14.5708 16.09 14.3765C16.3984 14.1572 16.765 14.0162 17.4982 13.7342L22.0071 12L17.4982 10.2658C16.765 9.98381 16.3984 9.8428 16.09 9.62353C15.8167 9.42919 15.5779 9.1904 15.3835 8.91709C15.1643 8.60871 15.0233 8.24209 14.7413 7.50886L13.0071 3Z" stroke="#573308" stroke-width="1.5" stroke-linecap="round" stroke-linejoin="round"/>
</svg>
