<svg width="10" height="11" viewBox="0 0 10 11" fill="none" xmlns="http://www.w3.org/2000/svg">
<path d="M4.91201 0.231321C4.94278 0.150428 5.05722 0.150428 5.08799 0.231321L5.15433 0.405753C5.9169 2.41057 7.42492 4.05785 9.35023 5.00337V5.00337C9.41106 5.03324 9.41171 5.12028 9.35088 5.15015V5.15015C7.43032 6.09334 5.9851 7.78854 5.35762 9.83413L5.09855 10.6787C5.06875 10.7759 4.93125 10.7759 4.90145 10.6787L4.64238 9.83413C4.0149 7.78854 2.56968 6.09334 0.649115 5.15015V5.15015C0.588287 5.12028 0.588943 5.03324 0.649771 5.00337V5.00337C2.57508 4.05785 4.0831 2.41057 4.84566 0.405753L4.91201 0.231321Z" fill="#4C58B5"/>
</svg>
