<svg width="18" height="18" viewBox="0 0 18 18" fill="none" xmlns="http://www.w3.org/2000/svg">
<path d="M5.66262 16C12.4534 16 16.1687 10.6132 16.1687 5.94326C16.1687 5.79182 16.1652 5.63702 16.1582 5.48558C16.8809 4.98526 17.5046 4.36554 18 3.65555C17.3269 3.94222 16.6122 4.12944 15.8804 4.21082C16.651 3.7687 17.2279 3.07416 17.5043 2.25594C16.7794 2.66716 15.9867 2.95724 15.1601 3.11374C14.6031 2.54727 13.8667 2.17219 13.0648 2.04651C12.2628 1.92083 11.4399 2.05153 10.7233 2.41843C10.0067 2.78532 9.43635 3.36796 9.10039 4.07626C8.76442 4.78457 8.68157 5.57909 8.86465 6.33699C7.39687 6.26648 5.96095 5.9015 4.64999 5.26571C3.33902 4.62991 2.18227 3.73749 1.25473 2.64631C0.7833 3.42434 0.639042 4.34501 0.851273 5.22119C1.0635 6.09738 1.6163 6.86333 2.3973 7.3634C1.81097 7.34558 1.23748 7.19446 0.724219 6.92255V6.96629C0.723693 7.78278 1.01857 8.57424 1.55873 9.20615C2.09889 9.83805 2.85099 10.2714 3.68719 10.4325C3.14404 10.5748 2.57399 10.5955 2.02113 10.4931C2.25709 11.1953 2.71618 11.8094 3.33433 12.2498C3.95248 12.6902 4.69884 12.9349 5.46926 12.9497C4.16132 13.9332 2.54563 14.4666 0.882422 14.4641C0.587465 14.4637 0.292799 14.4464 0 14.4123C1.68964 15.4499 3.65515 16.001 5.66262 16Z" fill="white"/>
</svg>
