<svg width="32" height="32" viewBox="0 0 32 32" fill="none" xmlns="http://www.w3.org/2000/svg">
<rect x="2" y="2" width="28" height="28" rx="14" fill="#18191B"/>
<path d="M12.6626 23C19.4534 23 23.1687 17.6132 23.1687 12.9433C23.1687 12.7918 23.1652 12.637 23.1582 12.4856C23.8809 11.9853 24.5046 11.3655 25 10.6556C24.3269 10.9422 23.6122 11.1294 22.8804 11.2108C23.651 10.7687 24.2279 10.0742 24.5043 9.25594C23.7794 9.66716 22.9867 9.95724 22.1601 10.1137C21.6031 9.54727 20.8667 9.17219 20.0648 9.04651C19.2628 8.92083 18.4399 9.05153 17.7233 9.41843C17.0067 9.78532 16.4363 10.368 16.1004 11.0763C15.7644 11.7846 15.6816 12.5791 15.8646 13.337C14.3969 13.2665 12.961 12.9015 11.65 12.2657C10.339 11.6299 9.18227 10.7375 8.25473 9.64631C7.7833 10.4243 7.63904 11.345 7.85127 12.2212C8.0635 13.0974 8.6163 13.8633 9.3973 14.3634C8.81097 14.3456 8.23748 14.1945 7.72422 13.9225V13.9663C7.72369 14.7828 8.01857 15.5742 8.55873 16.2061C9.09889 16.838 9.85099 17.2714 10.6872 17.4325C10.144 17.5748 9.57399 17.5955 9.02113 17.4931C9.25709 18.1953 9.71618 18.8094 10.3343 19.2498C10.9525 19.6902 11.6988 19.9349 12.4693 19.9497C11.1613 20.9332 9.54563 21.4666 7.88242 21.4641C7.58747 21.4637 7.2928 21.4464 7 21.4123C8.68964 22.4499 10.6551 23.001 12.6626 23Z" fill="white"/>
</svg>
