<svg width="134" height="134" viewBox="0 0 134 134" fill="none" xmlns="http://www.w3.org/2000/svg">
<path d="M62.3333 4.13334C63.977 -0.140109 70.0231 -0.140129 71.6668 4.13331L82.09 31.2332C84.205 36.7324 85.2625 39.482 86.9065 41.7948C88.3645 43.8446 90.1555 45.6356 92.2052 47.0931C94.5182 48.7377 97.2677 49.7952 102.767 51.9103L129.867 62.3333C134.14 63.977 134.14 70.0231 129.867 71.6668L102.767 82.09C97.2677 84.205 94.5182 85.2625 92.2052 86.9065C90.1555 88.3645 88.3645 90.1555 86.9065 92.2052C85.2625 94.5182 84.205 97.2677 82.09 102.767L71.6668 129.867C70.0231 134.14 63.977 134.14 62.3333 129.867L51.9103 102.767C49.7952 97.2677 48.7377 94.5182 47.0931 92.2052C45.6356 90.1555 43.8446 88.3645 41.7948 86.9065C39.482 85.2625 36.7324 84.205 31.2332 82.09L4.1333 71.6668C-0.140141 70.0231 -0.140114 63.977 4.13334 62.3333L31.2331 51.9103C36.7323 49.7952 39.482 48.7377 41.7948 47.0931C43.8446 45.6356 45.6356 43.8446 47.0931 41.7948C48.7377 39.482 49.7952 36.7323 51.9103 31.2331L62.3333 4.13334Z" fill="white"/>
</svg>
