<svg width="16" height="16" viewBox="0 0 16 16" fill="none" xmlns="http://www.w3.org/2000/svg">
<g clip-path="url(#clip0_21_11168)">
<path d="M10.6667 11.9998C11.0203 11.9998 11.3594 12.1403 11.6095 12.3904C11.8595 12.6404 12 12.9795 12 13.3332C12 12.9795 12.1405 12.6404 12.3905 12.3904C12.6406 12.1403 12.9797 11.9998 13.3333 11.9998C12.9797 11.9998 12.6406 11.8594 12.3905 11.6093C12.1405 11.3593 12 11.0201 12 10.6665C12 11.0201 11.8595 11.3593 11.6095 11.6093C11.3594 11.8594 11.0203 11.9998 10.6667 11.9998ZM10.6667 3.99984C11.0203 3.99984 11.3594 4.14031 11.6095 4.39036C11.8595 4.64041 12 4.97955 12 5.33317C12 4.97955 12.1405 4.64041 12.3905 4.39036C12.6406 4.14031 12.9797 3.99984 13.3333 3.99984C12.9797 3.99984 12.6406 3.85936 12.3905 3.60931C12.1405 3.35926 12 3.02013 12 2.6665C12 3.02013 11.8595 3.35926 11.6095 3.60931C11.3594 3.85936 11.0203 3.99984 10.6667 3.99984ZM6 11.9998C6 10.939 6.42143 9.92156 7.17157 9.17141C7.92172 8.42126 8.93913 7.99984 10 7.99984C8.93913 7.99984 7.92172 7.57841 7.17157 6.82826C6.42143 6.07812 6 5.0607 6 3.99984C6 5.0607 5.57857 6.07812 4.82843 6.82826C4.07828 7.57841 3.06087 7.99984 2 7.99984C3.06087 7.99984 4.07828 8.42126 4.82843 9.17141C5.57857 9.92156 6 10.939 6 11.9998Z" stroke="white" stroke-linecap="round" stroke-linejoin="round"/>
</g>
<defs>
<clipPath id="clip0_21_11168">
<rect width="16" height="16" fill="white"/>
</clipPath>
</defs>
</svg>
