<svg xmlns="http://www.w3.org/2000/svg" viewBox="0 0 640 640" role="img" aria-label="Catii">
  <defs>
    <linearGradient id="bg" x1="0" y1="0" x2="1" y2="1">
      <stop offset="0%" stop-color="#4c0519"/>
      <stop offset="100%" stop-color="#7c2d12"/>
    </linearGradient>
  </defs>
  <rect width="640" height="640" rx="48" fill="url(#bg)"/>
  <circle cx="320" cy="348" r="168" fill="#fdba74"/>
  <path d="M176 236 L214 92 L292 236 Z" fill="#fdba74"/>
  <path d="M464 236 L426 92 L348 236 Z" fill="#fdba74"/>
  <path d="M200 214 L226 128 L274 214 Z" fill="#fb7185"/>
  <path d="M440 214 L414 128 L366 214 Z" fill="#fb7185"/>
  <circle cx="268" cy="332" r="22" fill="#1c1917"/>
  <circle cx="372" cy="332" r="22" fill="#1c1917"/>
  <circle cx="274" cy="326" r="6" fill="#fff7ed"/>
  <circle cx="378" cy="326" r="6" fill="#fff7ed"/>
  <path d="M320 368 L300 392 Q320 408 340 392 Z" fill="#ea580c"/>
  <path d="M180 420 Q320 500 460 420" fill="none" stroke="#9a3412" stroke-width="14" stroke-linecap="round"/>
  <text x="320" y="590" text-anchor="middle" font-family="Georgia, serif" font-size="42" font-style="italic" fill="#ffedd5">Catii</text>
</svg>
